<?xml version="1.0" standalone="no"?><!DOCTYPE svg PUBLIC "-//W3C//DTD SVG 1.1//EN" "http://www.w3.org/Graphics/SVG/1.1/DTD/svg11.dtd"><svg class="icon" width="200px" height="200.00px" viewBox="0 0 1024 1024" version="1.1" xmlns="http://www.w3.org/2000/svg"><path d="M983.04 0a40.96 40.96 0 0 1 40.96 40.96v942.08a40.96 40.96 0 0 1-40.96 40.96H40.96a40.96 40.96 0 0 1-40.96-40.96V40.96a40.96 40.96 0 0 1 40.96-40.96h942.08z m0 20.48H40.96a20.48 20.48 0 0 0-20.33664 18.08384L20.48 40.96v942.08a20.48 20.48 0 0 0 18.08384 20.33664L40.96 1003.52h942.08a20.48 20.48 0 0 0 20.33664-18.08384L1003.52 983.04V40.96a20.48 20.48 0 0 0-18.08384-20.33664L983.04 20.48z m-102.4 245.76a20.48 20.48 0 0 1 20.48 20.48v450.56a20.48 20.48 0 0 1-20.48 20.48H143.36a20.48 20.48 0 0 1-20.48-20.48V286.72a20.48 20.48 0 0 1 20.48-20.48h737.28zM245.76 675.84H163.84v40.96h81.92v-40.96z m491.52 0h-81.92v40.96h81.92v-40.96z m122.88 0h-81.92v40.96h81.92v-40.96z m-491.52 0h-81.92v40.96h81.92v-40.96z m122.88 0h-81.92v40.96h81.92v-40.96z m122.88 0h-81.92v40.96h81.92v-40.96z m245.76-286.72H655.36v245.76h204.8V389.12z m-245.76 0H163.84v245.76h450.56V389.12z m-120.832 65.04448c13.76256 0 25.23136 3.60448 34.07872 10.81344 7.5776 6.12352 12.43136 14.29504 14.68416 24.33024l0.7168 3.85024h-18.67776c-1.96608-7.70048-5.57056-13.27104-10.97728-16.87552-5.24288-3.60448-11.96032-5.24288-20.15232-5.24288-12.288 0-21.46304 4.096-27.68896 12.61568-5.7344 7.53664-8.51968 18.0224-8.51968 31.45728 0 13.76256 2.78528 24.41216 8.35584 31.78496 6.06208 7.86432 15.5648 11.96032 28.34432 11.96032 8.35584 0 15.23712-2.12992 20.48-6.06208 4.77184-3.7888 8.35584-9.27744 10.71104-16.32256l1.08544-3.66592h18.67776c-2.62144 13.76256-8.68352 24.41216-18.35008 32.11264-9.0112 7.20896-19.82464 10.81344-32.44032 10.81344-19.49696 0-34.07872-6.22592-43.58144-18.35008-8.35584-10.48576-12.45184-24.576-12.45184-42.27072 0-17.36704 4.25984-31.62112 12.94336-42.43456 9.8304-12.45184 24.08448-18.51392 42.76224-18.51392z m-206.60224 2.29376c28.18048 0 42.43456 11.96032 42.43456 35.88096 0 22.9376-12.92288 35.0208-38.78912 36.12672l-3.97312 0.08192H257.6384V573.44h-19.16928v-116.98176h48.49664z m77.824 0V557.056H428.032v16.384h-82.24768v-116.98176h19.00544z m-79.29856 16.384h-27.8528v39.3216h27.8528c8.51968 0 14.7456-1.6384 18.67776-4.58752 3.93216-3.11296 5.89824-8.192 5.89824-15.23712s-2.12992-11.96032-6.06208-14.90944c-3.93216-3.11296-10.15808-4.58752-18.51392-4.58752zM245.76 307.2H163.84v40.96h81.92v-40.96z m491.52 0h-81.92v40.96h81.92v-40.96z m122.88 0h-81.92v40.96h81.92v-40.96z m-245.76 0h-81.92v40.96h81.92v-40.96z m-122.88 0h-81.92v40.96h81.92v-40.96z m-122.88 0h-81.92v40.96h81.92v-40.96z" fill="#000000" /></svg>